<svg id="aae94f7e-a358-48a6-ae85-1b3195fcc741" data-name="Layer 1" xmlns="http://www.w3.org/2000/svg" viewBox="0 0 176.24 28.83">
  <defs>
    <style>
      .c177f1a0-19c5-4169-8286-11412d21aea0 {
        fill: #231f20;
      }
    </style>
  </defs>
  <title>pizza</title>
  <g>
    <path class="c177f1a0-19c5-4169-8286-11412d21aea0" d="M181,231.86a40.35,40.35,0,0,1,6.68-.52c3.44,0,6,.8,7.56,2.24a7.25,7.25,0,0,1,2.36,5.64,7.94,7.94,0,0,1-2.08,5.76c-1.84,2-4.84,3-8.24,3a12,12,0,0,1-2.8-.24v10.8H181V231.86Zm3.48,13a11.66,11.66,0,0,0,2.88.28c4.2,0,6.76-2,6.76-5.76,0-3.56-2.52-5.28-6.36-5.28a14.58,14.58,0,0,0-3.28.28v10.48Z" transform="translate(-181.04 -230.1)"/>
    <path class="c177f1a0-19c5-4169-8286-11412d21aea0" d="M205.48,233.7a2.18,2.18,0,0,1-4.36,0,2.14,2.14,0,0,1,2.2-2.2A2.09,2.09,0,0,1,205.48,233.7Zm-3.92,24.8V239.14h3.52V258.5h-3.52Z" transform="translate(-181.04 -230.1)"/>
    <path class="c177f1a0-19c5-4169-8286-11412d21aea0" d="M208.72,256.46l8.76-11.4c0.84-1,1.64-2,2.52-3V242H209.52v-2.84h14.76l0,2.2-8.64,11.24c-0.8,1.08-1.6,2-2.48,3v0.08h11.32v2.8H208.72v-2Z" transform="translate(-181.04 -230.1)"/>
    <path class="c177f1a0-19c5-4169-8286-11412d21aea0" d="M225.84,256.46l8.76-11.4c0.84-1,1.64-2,2.52-3V242H226.64v-2.84H241.4l0,2.2-8.64,11.24c-0.8,1.08-1.6,2-2.48,3v0.08h11.32v2.8H225.84v-2Z" transform="translate(-181.04 -230.1)"/>
    <path class="c177f1a0-19c5-4169-8286-11412d21aea0" d="M255.88,258.5l-0.28-2.44h-0.12a7.21,7.21,0,0,1-5.92,2.88,5.51,5.51,0,0,1-5.92-5.56c0-4.68,4.16-7.24,11.64-7.2v-0.4c0-1.6-.44-4.48-4.4-4.48a9.64,9.64,0,0,0-5,1.44l-0.8-2.32a12,12,0,0,1,6.36-1.72c5.92,0,7.36,4,7.36,7.92v7.24a27.22,27.22,0,0,0,.32,4.64h-3.2Zm-0.52-9.88c-3.84-.08-8.2.6-8.2,4.36a3.11,3.11,0,0,0,3.32,3.36,4.82,4.82,0,0,0,4.68-3.24,3.69,3.69,0,0,0,.2-1.12v-3.36Z" transform="translate(-181.04 -230.1)"/>
    <path class="c177f1a0-19c5-4169-8286-11412d21aea0" d="M273,231.9a36.25,36.25,0,0,1,6.68-.56c3.72,0,6.12.68,7.8,2.2a6.71,6.71,0,0,1,2.12,5.12,7.08,7.08,0,0,1-5.08,6.88v0.12c2.08,0.72,3.32,2.64,4,5.44a42.89,42.89,0,0,0,2.08,7.4H287a35,35,0,0,1-1.8-6.44c-0.8-3.72-2.24-5.12-5.4-5.24h-3.28V258.5H273V231.9Zm3.48,12.28h3.56c3.72,0,6.08-2,6.08-5.12,0-3.48-2.52-5-6.2-5a14.3,14.3,0,0,0-3.44.32v9.84Z" transform="translate(-181.04 -230.1)"/>
    <path class="c177f1a0-19c5-4169-8286-11412d21aea0" d="M310.64,253.22c0,2,0,3.76.16,5.28h-3.12l-0.2-3.16H307.4a7.28,7.28,0,0,1-6.4,3.6c-3,0-6.68-1.68-6.68-8.48V239.14h3.52v10.72c0,3.68,1.12,6.16,4.32,6.16a5.09,5.09,0,0,0,4.64-3.2,5.14,5.14,0,0,0,.32-1.8V239.14h3.52v14.08Z" transform="translate(-181.04 -230.1)"/>
    <path class="c177f1a0-19c5-4169-8286-11412d21aea0" d="M316.48,230.1H320v28.4h-3.52V230.1Z" transform="translate(-181.04 -230.1)"/>
    <path class="c177f1a0-19c5-4169-8286-11412d21aea0" d="M327.88,249.46c0.08,4.76,3.12,6.72,6.64,6.72a12.73,12.73,0,0,0,5.36-1l0.6,2.52a15.68,15.68,0,0,1-6.44,1.2c-6,0-9.52-3.92-9.52-9.76S328,238.7,333.6,238.7c6.32,0,8,5.56,8,9.12a13.26,13.26,0,0,1-.12,1.64h-13.6Zm10.32-2.52c0-2.24-.92-5.72-4.88-5.72-3.56,0-5.12,3.28-5.4,5.72H338.2Z" transform="translate(-181.04 -230.1)"/>
    <path class="c177f1a0-19c5-4169-8286-11412d21aea0" d="M345.48,254.9a9.22,9.22,0,0,0,4.64,1.4c2.56,0,3.76-1.28,3.76-2.88s-1-2.6-3.6-3.56c-3.48-1.24-5.12-3.16-5.12-5.48,0-3.12,2.52-5.68,6.68-5.68a9.66,9.66,0,0,1,4.76,1.2l-0.88,2.56a7.53,7.53,0,0,0-4-1.12c-2.08,0-3.24,1.2-3.24,2.64,0,1.6,1.16,2.32,3.68,3.28,3.36,1.28,5.08,3,5.08,5.84,0,3.4-2.64,5.8-7.24,5.8a11,11,0,0,1-5.44-1.32Z" transform="translate(-181.04 -230.1)"/>
  </g>
</svg>
